<?xml version="1.0" encoding="UTF-8" standalone="no"?>
<!DOCTYPE svg PUBLIC "-//W3C//DTD SVG 1.1//EN" "http://www.w3.org/Graphics/SVG/1.1/DTD/svg11.dtd">
<svg xmlns="http://www.w3.org/2000/svg" version="1.1" viewBox="0.00 0.00 500.00 500.00">
<path fill="#ffffff" d="
  M 184.07 195.48
  L 183.98 214.58
  Q 183.98 215.11 183.58 215.45
  L 144.20 249.62
  A 0.42 0.42 0.0 0 1 143.50 249.30
  L 143.50 131.03
  Q 143.50 130.58 143.94 130.56
  C 152.72 130.09 169.62 128.65 174.41 132.84
  Q 260.79 208.34 347.23 283.80
  A 0.33 0.33 0.0 0 1 347.25 284.28
  Q 343.56 287.95 339.61 291.37
  Q 294.73 330.22 250.42 368.85
  Q 249.71 369.48 248.99 368.85
  Q 202.55 328.33 157.05 288.71
  Q 154.21 286.23 152.76 284.58
  Q 152.35 284.12 152.81 283.71
  L 181.91 258.24
  A 0.76 0.75 44.7 0 1 182.90 258.24
  L 248.96 315.70
  A 1.24 1.23 -45.2 0 0 250.58 315.69
  L 285.84 284.88
  Q 286.40 284.39 285.90 283.83
  Q 284.27 281.99 281.46 279.54
  Q 233.17 237.41 184.77 195.16
  A 0.42 0.42 0.0 0 0 184.07 195.48
  Z"
/>
<path fill="#ffffff" d="
  M 315.49 194.91
  L 304.70 204.31
  Q 304.27 204.68 303.85 204.31
  L 274.57 178.80
  A 0.50 0.50 0.0 0 1 274.54 178.07
  Q 278.62 173.82 283.17 169.90
  C 298.28 156.89 313.48 143.94 328.50 130.83
  Q 328.88 130.50 329.38 130.50
  L 355.70 130.41
  Q 356.25 130.41 356.25 130.95
  L 356.25 248.76
  A 0.56 0.56 0.0 0 1 355.32 249.18
  L 316.40 215.20
  Q 316.00 214.86 316.00 214.33
  L 316.00 195.14
  A 0.31 0.31 0.0 0 0 315.49 194.91
  Z"
/>
</svg>
