<?xml version="1.0" encoding="iso-8859-1"?>
<!-- Generator: Adobe Illustrator 19.0.0, SVG Export Plug-In . SVG Version: 6.00 Build 0)  -->
<svg version="1.1" id="Capa_1" xmlns="http://www.w3.org/2000/svg" xmlns:xlink="http://www.w3.org/1999/xlink" x="0px" y="0px"
	 viewBox="0 0 396 396" style="enable-background:new 0 0 396 396;" xml:space="preserve">
<rect x="7.6" y="83.2" style="fill:#B895EF;" width="380.8" height="263.6"/>
<path style="fill:#FFD517;" d="M239.6,228.8c0,11.6-9.2,20.8-20.8,20.8h-41.6c-11.6,0-20.8-9.2-20.8-20.8l0,0c0-4.8,1.6-9.2,4-12.4
	c3.6-5.2,10-8.4,16.8-8.4h41.6c5.6,0,10.8,2.4,14.8,6C237.2,218,239.6,223.2,239.6,228.8L239.6,228.8z"/>
<path style="fill:#210B20;" d="M7.6,354.4h380.8c4,0,7.6-3.2,7.6-7.6V83.2c0-4-3.2-7.6-7.6-7.6H265.6v-7.2c0-14.8-12-26.8-26.8-26.8
	h-81.2c-14.8,0-26.8,12-26.8,26.8v7.2H7.6c-4,0-7.6,3.2-7.6,7.6v263.6C0,351.2,3.2,354.4,7.6,354.4z M380.8,168l-137.2,47.2
	c-1.2-2.4-2.8-4.8-4.8-6.4c-5.2-5.2-12.4-8.4-20-8.4h-41.6c-8.8,0-17.2,4-22.8,11.2c-0.8,1.2-1.6,2.4-2,3.6L15.2,168v-44h366v44
	H380.8z M166.8,220.8c2.4-3.2,6.4-5.2,10.4-5.2h41.6c3.6,0,6.8,1.2,9.2,4c2.4,2.4,4,6,4,9.2c0,7.2-6,13.2-13.2,13.2h-41.6
	c-7.2,0-13.2-6-13.2-13.2C164,226,164.8,223.2,166.8,220.8z M15.2,339.2V184l133.6,46c0.8,15.2,13.2,27.2,28.4,27.2h41.6
	c15.2,0,27.6-12,28.4-27.2l134-46v155.2H15.2z M145.6,68.4c0-6.4,5.2-11.6,11.6-11.6h81.2c6.4,0,11.6,5.2,11.6,11.6v7.2H145.6V68.4z
	 M380.8,90.8v18.4H15.2V90.8H380.8z"/>
<g>
</g>
<g>
</g>
<g>
</g>
<g>
</g>
<g>
</g>
<g>
</g>
<g>
</g>
<g>
</g>
<g>
</g>
<g>
</g>
<g>
</g>
<g>
</g>
<g>
</g>
<g>
</g>
<g>
</g>
</svg>
